<svg width="18" height="18" viewBox="0 0 18 18" fill="none" xmlns="http://www.w3.org/2000/svg">
<g clip-path="url(#clip0_2012_7039)">
<path d="M17.4443 12.1501L15.4943 5.12188C15.0779 3.61844 14.1706 2.29749 12.9168 1.36924C11.663 0.441003 10.1347 -0.0411779 8.57516 -0.000558163C7.01566 0.0400616 5.51455 0.601148 4.31075 1.5934C3.10694 2.58566 2.26963 3.95205 1.93206 5.47513L0.423809 12.2626C0.350828 12.5915 0.352608 12.9325 0.429018 13.2605C0.505427 13.5886 0.654516 13.8953 0.865285 14.158C1.07605 14.4208 1.34312 14.6328 1.64679 14.7786C1.95046 14.9243 2.28298 15 2.61981 15.0001H5.32506C5.4972 15.8478 5.95711 16.61 6.62687 17.1574C7.29662 17.7048 8.13504 18.0039 9.00006 18.0039C9.86508 18.0039 10.7035 17.7048 11.3733 17.1574C12.043 16.61 12.5029 15.8478 12.6751 15.0001H15.2776C15.6241 15 15.966 14.9198 16.2765 14.7657C16.5869 14.6117 16.8576 14.388 17.0674 14.1122C17.2773 13.8363 17.4205 13.5157 17.486 13.1754C17.5515 12.835 17.5367 12.4842 17.4443 12.1501ZM9.00006 16.5001C8.53636 16.4982 8.08459 16.3531 7.70653 16.0846C7.32848 15.8161 7.04262 15.4373 6.88806 15.0001H11.1121C10.9575 15.4373 10.6716 15.8161 10.2936 16.0846C9.91553 16.3531 9.46375 16.4982 9.00006 16.5001ZM15.8738 13.2039C15.8038 13.2966 15.7131 13.3717 15.609 13.4232C15.5048 13.4746 15.39 13.501 15.2738 13.5001H2.61981C2.5075 13.5001 2.39664 13.4749 2.29539 13.4263C2.19415 13.3777 2.10511 13.307 2.03485 13.2194C1.96459 13.1317 1.9149 13.0295 1.88945 12.9201C1.864 12.8107 1.86344 12.697 1.88781 12.5874L3.39606 5.79988C3.66182 4.60453 4.31954 3.53233 5.26465 2.75372C6.20976 1.9751 7.38803 1.53476 8.61214 1.50269C9.83625 1.47062 11.036 1.84867 12.0205 2.57673C13.0051 3.30479 13.7181 4.34109 14.0461 5.52088L15.9961 12.5491C16.0279 12.6603 16.0334 12.7773 16.0122 12.8909C15.991 13.0046 15.9436 13.1117 15.8738 13.2039Z" fill="#4F618A"/>
</g>
<defs>
<clipPath id="clip0_2012_7039">
<rect width="18" height="18" fill="white"/>
</clipPath>
</defs>
</svg>
