<svg width="24" height="24" viewBox="0 0 24 24" fill="none" xmlns="http://www.w3.org/2000/svg">
<g clip-path="url(#clip0_2084_827)">
<path d="M16.5 4.49951C16.5 2.0142 14.4853 -0.000488281 12 -0.000488281C9.51469 -0.000488281 7.5 2.0142 7.5 4.49951C7.5 6.98482 9.51469 8.99951 12 8.99951C14.4853 8.99951 16.5 6.98482 16.5 4.49951ZM10.9495 11.3011C8.16844 9.59857 3.66375 9.13076 1.39687 9.00186C0.635156 8.95873 0 9.53904 0 10.2717V20.7155C0 21.3872 0.543281 21.9473 1.24172 21.9834C3.28828 22.0908 7.42875 22.484 10.2905 23.9254C10.7297 24.1467 11.2505 23.8453 11.2505 23.369V11.8383C11.25 11.6194 11.1417 11.4187 10.9495 11.3011ZM22.6031 9.00186C20.3367 9.13029 15.8316 9.59857 13.0509 11.3011C12.8588 11.4187 12.7505 11.6273 12.7505 11.8462V23.3676C12.7505 23.8453 13.2727 24.1472 13.7133 23.9254C16.5745 22.4855 20.7127 22.0922 22.7587 21.9848C23.4572 21.9483 24.0005 21.3881 24.0005 20.7164V10.2717C24 9.53904 23.3648 8.95873 22.6031 9.00186Z" fill="#4F618A"/>
</g>
<defs>
<clipPath id="clip0_2084_827">
<rect width="24" height="24" fill="white"/>
</clipPath>
</defs>
</svg>
