<svg width="27" height="24" viewBox="0 0 27 24" fill="none" xmlns="http://www.w3.org/2000/svg">
<path d="M23.8061 10.0415H22.9267V10H13.101V14H19.271C18.3709 16.3285 15.9521 18 13.101 18C9.48353 18 6.55057 15.3135 6.55057 12C6.55057 8.6865 9.48353 6 13.101 6C14.7708 6 16.29 6.577 17.4467 7.5195L20.5347 4.691C18.5849 3.0265 15.9767 2 13.101 2C7.07187 2 2.18359 6.4775 2.18359 12C2.18359 17.5225 7.07187 22 13.101 22C19.1302 22 24.0185 17.5225 24.0185 12C24.0185 11.3295 23.9431 10.675 23.8061 10.0415Z" fill="#FFC107"/>
<path d="M3.44238 7.3455L7.0293 9.755C7.99986 7.554 10.3504 6 13.101 6C14.7709 6 16.29 6.577 17.4467 7.5195L20.5347 4.691C18.5849 3.0265 15.9767 2 13.101 2C8.90765 2 5.27105 4.1685 3.44238 7.3455Z" fill="#FF3D00"/>
<path d="M13.1008 21.9999C15.9208 21.9999 18.4831 21.0114 20.4204 19.4039L17.0415 16.7849C15.9085 17.574 14.5242 18.0009 13.1008 17.9999C10.2612 17.9999 7.8501 16.3414 6.94177 14.0269L3.38159 16.5394C5.18843 19.7779 8.85778 21.9999 13.1008 21.9999Z" fill="#4CAF50"/>
<path d="M23.8059 10.0415H22.9265V10H13.1008V14H19.2708C18.8402 15.1082 18.0646 16.0766 17.0398 16.7855L17.0415 16.7845L20.4204 19.4035C20.1813 19.6025 24.0183 17 24.0183 12C24.0183 11.3295 23.9429 10.675 23.8059 10.0415Z" fill="#1976D2"/>
</svg>
