<svg width="27" height="24" viewBox="0 0 27 24" fill="none" xmlns="http://www.w3.org/2000/svg">
<path d="M19.1244 12.5555C19.1141 10.957 19.9048 9.75234 21.5015 8.86406C20.6085 7.69219 19.2574 7.04766 17.4765 6.92344C15.7903 6.80156 13.9454 7.82344 13.2699 7.82344C12.556 7.82344 10.9235 6.96563 9.639 6.96563C6.98811 7.00313 4.1709 8.90156 4.1709 12.7641C4.1709 13.9055 4.39863 15.0844 4.85409 16.2984C5.46308 17.8969 7.65851 21.8133 9.94861 21.75C11.1461 21.7242 11.9931 20.9719 13.5514 20.9719C15.0636 20.9719 15.8466 21.75 17.1823 21.75C19.4928 21.7195 21.4784 18.1594 22.0567 16.5563C18.958 15.218 19.1244 12.6375 19.1244 12.5555ZM16.4351 5.40703C17.7324 3.99609 17.6147 2.71172 17.5763 2.25C16.43 2.31094 15.1045 2.96484 14.3497 3.76875C13.5181 4.63125 13.0294 5.69766 13.1343 6.9C14.3727 6.98672 15.5037 6.40313 16.4351 5.40703Z" fill="black"/>
</svg>
