<svg width="17" height="10" viewBox="0 0 17 10" fill="none" xmlns="http://www.w3.org/2000/svg">
<path fill-rule="evenodd" clip-rule="evenodd" d="M2 0H1C0.447715 0 0 0.447715 0 1V9C0 9.55228 0.447715 10 1 10H2C2.55228 10 3 9.55228 3 9V1C3 0.447715 2.55228 0 2 0Z" fill="white"/>
<path fill-rule="evenodd" clip-rule="evenodd" d="M6.5 2H5.5C4.94772 2 4.5 2.44772 4.5 3V9C4.5 9.55228 4.94772 10 5.5 10H6.5C7.05228 10 7.5 9.55228 7.5 9V3C7.5 2.44772 7.05228 2 6.5 2Z" fill="white"/>
<path fill-rule="evenodd" clip-rule="evenodd" d="M11 4H10C9.44772 4 9 4.44772 9 5V9C9 9.55228 9.44772 10 10 10H11C11.5523 10 12 9.55228 12 9V5C12 4.44772 11.5523 4 11 4Z" fill="white"/>
<path fill-rule="evenodd" clip-rule="evenodd" d="M15.5 5.5H14.5C13.9477 5.5 13.5 5.94772 13.5 6.5V9C13.5 9.55228 13.9477 10 14.5 10H15.5C16.0523 10 16.5 9.55228 16.5 9V6.5C16.5 5.94772 16.0523 5.5 15.5 5.5Z" fill="white"/>
</svg>
