<svg width="15" height="10" viewBox="0 0 15 10" fill="none" xmlns="http://www.w3.org/2000/svg">
<path d="M7.13271 6.93945C7.77221 6.93945 8.39359 7.1075 8.94111 7.42792L9.16294 7.55775C9.33113 7.65617 9.3607 7.88652 9.22281 8.02403L7.32873 9.91285C7.21239 10.0289 7.02376 10.0289 6.90742 9.91285L5.02551 8.03617C4.88823 7.89927 4.91684 7.67009 5.0836 7.57094L5.30295 7.44051C5.85549 7.11198 6.48477 6.93945 7.13271 6.93945Z" fill="white"/>
<path d="M7.13267 3.46973C8.7235 3.46973 10.2509 3.99747 11.4952 4.97479L11.6711 5.11291C11.8113 5.22303 11.8236 5.43052 11.6974 5.55636L10.5666 6.684C10.462 6.7883 10.2965 6.80028 10.1779 6.71214L10.0401 6.60969C9.19969 5.98511 8.18633 5.65008 7.13267 5.65008C6.07251 5.65008 5.05323 5.98928 4.21005 6.62103L4.07207 6.72441C3.95346 6.81327 3.78737 6.80157 3.68247 6.69696L2.5521 5.56974C2.42618 5.44417 2.43813 5.2372 2.57769 5.12687L2.75254 4.98864C3.99979 4.00261 5.53416 3.46973 7.13267 3.46973Z" fill="white"/>
<path d="M7.13272 0C9.65741 0 12.0717 0.890572 13.9828 2.52294L14.1459 2.66228C14.2777 2.77488 14.2855 2.97558 14.1627 3.09797L13.0356 4.22195C12.9264 4.33084 12.7519 4.33847 12.6336 4.23952L12.494 4.12283C10.9894 2.86472 9.10354 2.18035 7.13272 2.18035C5.15517 2.18035 3.26327 2.86943 1.75641 4.13541L1.6168 4.2527C1.4985 4.3521 1.32359 4.34466 1.2142 4.23557L0.0872572 3.11176C-0.0353068 2.98954 -0.0277638 2.78918 0.103645 2.67646L0.266142 2.53708C2.17953 0.89589 4.60056 0 7.13272 0Z" fill="white"/>
</svg>
